<svg id="Layer_1" data-name="Layer 1" xmlns="http://www.w3.org/2000/svg" viewBox="0 0 500 500" width="500" height="500" class="illustration"><defs><style>.cls-1{fill:#f2f2f2;}.cls-2{fill:#c3c7c9;opacity:0.26;}.cls-3{fill:#24285b;}.cls-4{fill:#fff;}.cls-5{fill:#0099f5;}.cls-6{fill:#f9bb0d;}.cls-7{fill:#ffd44d;}.cls-8{fill:#0086f4;}.cls-9{fill:#9c5631;}.cls-10{fill:#8e4728;}</style></defs><title>Internet security</title><path class="cls-1" d="M448,125.42V384.49a14.26,14.26,0,0,1-14.26,14.26H44.49a14.26,14.26,0,0,1-14.27-14.26V125.42Z"></path><path class="cls-2" d="M30.22,125.42v33.09H426V398.75h7.71A14.26,14.26,0,0,0,448,384.49V125.42Z"></path><path class="cls-3" d="M448,76.08v63.09H30.22V76.08A14.27,14.27,0,0,1,44.49,61.81H433.7A14.27,14.27,0,0,1,448,76.08Z"></path><circle class="cls-4" cx="121.33" cy="97.85" r="6.94"></circle><circle class="cls-4" cx="89.71" cy="97.85" r="6.94"></circle><circle class="cls-4" cx="58.1" cy="97.85" r="6.94"></circle><path class="cls-5" d="M470.77,343.4c-34.58-11.54-59.23-34-59.23-34s-24.64,22.47-59.22,34c0,0-2.08,73,59.22,95.79C472.85,416.37,470.77,343.4,470.77,343.4Z"></path><path class="cls-3" d="M414.18,344.24h-5.27a13.33,13.33,0,0,0-13.31,13.32V368.1a2.77,2.77,0,1,0,5.53,0V357.56a7.79,7.79,0,0,1,7.78-7.78h5.27a7.79,7.79,0,0,1,7.78,7.78v10.57h5.53V357.56A13.33,13.33,0,0,0,414.18,344.24Z"></path><rect class="cls-6" x="388.91" y="367.01" width="45.26" height="37.32" rx="3"></rect><rect class="cls-7" x="388.91" y="367.01" width="39.92" height="33.24" rx="3"></rect><path class="cls-3" d="M416.76,382.45a5.39,5.39,0,1,0-8.39,4.47v3.24a3.18,3.18,0,0,0,6.35,0v-3.49A5.39,5.39,0,0,0,416.76,382.45Z"></path><path class="cls-8" d="M470.77,343.4c-34.58-11.54-59.23-34-59.23-34s-3,2.75-8.4,6.81c10,7.56,28.33,19.69,50.82,27.2,0,0,1.88,66.12-50.82,92.16,2.66,1.31,5.46,2.53,8.4,3.63C472.85,416.37,470.77,343.4,470.77,343.4Z"></path><path class="cls-9" d="M270.53,331.67l5-22.28,23.18-7-5-31.24,21.65-1.7a76.69,76.69,0,1,0-75.85,88.07,78.13,78.13,0,0,0,12.23-1V331.67Z"></path><rect class="cls-10" x="224.71" y="236.14" width="6.92" height="6.92"></rect><rect class="cls-10" x="198.68" y="280.87" width="6.92" height="6.92"></rect><rect class="cls-10" x="270.83" y="264.11" width="6.92" height="6.92"></rect><rect class="cls-10" x="231.63" y="264.11" width="6.92" height="6.92"></rect><rect class="cls-10" x="240.83" y="290.3" width="6.92" height="6.92"></rect><rect class="cls-10" x="231.63" y="312.55" width="6.92" height="6.92"></rect></svg>